<?xml version="1.0" encoding="utf-8"?>
<!-- Generator: Adobe Illustrator 16.0.0, SVG Export Plug-In . SVG Version: 6.00 Build 0)  -->
<!DOCTYPE svg PUBLIC "-//W3C//DTD SVG 1.1//EN" "http://www.w3.org/Graphics/SVG/1.1/DTD/svg11.dtd">
<svg version="1.1" id="Capa_1" xmlns="http://www.w3.org/2000/svg" xmlns:xlink="http://www.w3.org/1999/xlink" x="0px" y="0px"
	 width="2583.259px" height="841.89px" viewBox="0 0 2583.259 841.89" enable-background="new 0 0 2583.259 841.89"
	 xml:space="preserve">
<path fill="#004876" d="M719.587,401.333l-124.82-215.701c-7.147-12.368-20.348-19.687-34.633-19.687H310.493
	c-14.285,0-27.485,7.295-34.633,19.665L151.035,401.449c-7.156,12.383-7.156,27.564,0,39.947L275.86,657.677
	c7.147,12.369,20.348,20.268,34.633,20.268h249.642c14.285,0,27.485-7.939,34.633-20.307l124.82-216.162
	C726.744,429.093,726.744,413.715,719.587,401.333z M353.311,293.945h32v99.224l-32,56.891V293.945z M316.967,549.945l144-256h36
	l-144,256H316.967z M516.967,549.945l-44-78.389l18-31.917l62,110.306H516.967z M408.967,549.945h-36l144-256h36L408.967,549.945z"
	/>
<g>
	<path fill="#004876" d="M940.261,549.659l-56.089-86.619l-34.435,38.34v48.279h-30.175V293.352h30.175v167.203l81.294-90.524
		h36.564l-63.899,70.999l70.645,108.629H940.261z"/>
	<path fill="#004876" d="M1003.417,328.851v-35.499h35.145v35.499H1003.417z M1005.547,549.659V370.031h30.885v179.628H1005.547z"/>
	<path fill="#004876" d="M1151.52,552.144c-38.694,0-49.345-24.495-49.345-48.635V395.946h-34.789v-25.915h34.789v-45.794
		l30.175-7.101v52.895h53.249v25.915h-53.249v104.014c0,17.395,7.455,24.494,24.14,24.494c12.78,0,30.885-3.194,30.885-3.194v25.914
		C1179.209,549.303,1168.205,552.144,1151.52,552.144z"/>
	<path fill="#004876" d="M1340.555,534.749c-12.779,12.425-29.818,19.525-51.829,19.525c-32.305,0-52.895-14.91-65.675-33.725
		c-9.584-14.2-14.909-33.725-14.909-60.704c0-26.98,5.325-46.505,14.909-60.705c12.78-18.814,33.015-33.725,65.319-33.725
		c21.299,0,38.696,7.101,51.12,19.17c12.07,11.715,19.879,26.625,21.301,46.149h-30.531c-1.42-12.425-6.035-21.3-12.779-28.044
		c-7.1-6.745-17.395-11.005-29.11-11.005c-13.845,0-23.43,4.97-31.239,11.715c-14.2,12.069-18.104,34.435-18.104,56.444
		s3.904,44.374,18.104,56.444c7.81,6.744,17.395,11.715,31.239,11.715c12.424,0,23.43-4.615,30.53-12.07
		c6.391-6.745,10.65-14.91,12.07-26.625h30.529C1360.08,508.479,1352.625,523.034,1340.555,534.749z"/>
	<path fill="#004876" d="M1524.658,533.329c-13.135,12.78-31.596,20.945-54.314,20.945c-22.721,0-41.18-8.165-54.314-20.945
		c-19.525-19.17-25.561-45.084-25.561-73.483c0-28.4,6.035-54.314,25.561-73.484c13.135-12.78,31.594-20.945,54.314-20.945
		c22.719,0,41.18,8.165,54.314,20.945c19.523,19.17,25.559,45.084,25.559,73.484
		C1550.217,488.245,1544.182,514.159,1524.658,533.329z M1502.648,404.111c-7.455-7.455-18.105-12.78-32.305-12.78
		c-14.201,0-24.85,5.325-32.305,12.78c-12.781,13.135-16.686,34.789-16.686,55.734c0,20.944,3.904,42.599,16.686,55.733
		c7.455,7.455,18.104,12.78,32.305,12.78c14.199,0,24.85-5.325,32.305-12.78c12.779-13.135,16.684-34.789,16.684-55.733
		C1519.332,438.9,1515.428,417.246,1502.648,404.111z"/>
	<path fill="#004876" d="M1707.305,549.659V435.705c0-26.979-11.004-42.954-39.404-42.954c-17.395,0-31.24,11.36-39.049,27.689
		c-6.035,13.135-6.391,31.95-6.391,45.795v83.424h-30.174V370.031h26.27l2.484,26.979c9.23-20.59,34.08-31.595,54.314-31.595
		c40.824,0,62.125,24.495,62.125,66.029v118.214H1707.305z"/>
	<path fill="#004876" d="M1909.793,534.749c-12.779,12.425-29.818,19.525-51.828,19.525c-32.305,0-52.895-14.91-65.676-33.725
		c-9.584-14.2-14.908-33.725-14.908-60.704c0-26.98,5.324-46.505,14.908-60.705c12.781-18.814,33.016-33.725,65.32-33.725
		c21.299,0,38.695,7.101,51.119,19.17c12.07,11.715,19.879,26.625,21.301,46.149h-30.531c-1.42-12.425-6.035-21.3-12.779-28.044
		c-7.1-6.745-17.395-11.005-29.109-11.005c-13.846,0-23.43,4.97-31.24,11.715c-14.199,12.069-18.104,34.435-18.104,56.444
		s3.904,44.374,18.104,56.444c7.811,6.744,17.395,11.715,31.24,11.715c12.424,0,23.43-4.615,30.529-12.07
		c6.391-6.745,10.65-14.91,12.07-26.625h30.529C1929.318,508.479,1921.863,523.034,1909.793,534.749z"/>
	<path fill="#004876" d="M2118.072,469.785h-127.09c0,16.33,6.391,34.079,17.395,45.084c8.166,8.165,19.17,12.78,33.016,12.78
		c14.199,0,25.914-3.905,33.369-11.715c4.971-4.97,8.166-9.939,10.65-19.524h29.465c-2.484,17.749-13.135,34.435-27.689,44.374
		c-12.781,8.52-28.756,13.49-45.795,13.49c-25.205,0-45.795-10.65-59.639-26.979c-14.91-17.396-22.365-41.18-22.365-66.739
		c0-21.655,3.904-40.825,13.844-57.51c12.781-21.654,36.566-37.63,67.805-37.63c23.074,0,41.535,8.875,54.67,23.075
		c14.555,15.975,23.074,39.05,22.719,63.189L2118.072,469.785z M2076.537,407.305c-7.455-9.939-19.525-16.329-35.5-16.329
		c-32.66,0-48.635,26.624-49.344,52.894h95.848C2087.541,430.38,2083.637,416.89,2076.537,407.305z"/>
	<path fill="#004876" d="M2291.168,536.524c-11.715,11.005-28.4,18.104-49.344,18.104c-19.525,0-42.6-9.229-52.186-25.56v97.624
		h-30.174V370.386h26.625l2.129,23.43c10.295-18.105,33.369-28.045,53.605-28.045c22.01,0,39.049,7.455,50.764,19.524
		c17.039,17.396,25.914,44.729,25.914,74.55C2318.502,490.729,2309.273,519.129,2291.168,536.524z M2236.854,391.331
		c-13.135,0-22.01,5.325-29.109,11.715c-14.91,13.135-19.881,34.79-19.881,57.154c0,22.365,4.971,44.02,19.881,57.154
		c7.1,6.39,15.975,11.715,29.109,11.715c40.115,0,50.764-35.854,50.764-68.869S2276.969,391.331,2236.854,391.331z"/>
	<path fill="#004876" d="M2420.17,552.144c-38.693,0-49.344-24.495-49.344-48.635V395.946h-34.789v-25.915h34.789v-45.794
		l30.174-7.101v52.895h53.25v25.915H2401v104.014c0,17.395,7.455,24.494,24.141,24.494c12.779,0,30.885-3.194,30.885-3.194v25.914
		C2447.859,549.303,2436.855,552.144,2420.17,552.144z"/>
</g>
</svg>
